<mxfile host="app.diagrams.net" modified="2023-11-14T06:38:10.913Z" agent="Mozilla/5.0 (Windows NT 10.0; Win64; x64) AppleWebKit/537.36 (KHTML, like Gecko) Chrome/119.0.0.0 Safari/537.36" version="22.1.0" etag="WEEzEq8L_A4z9hhfXYhX" type="github">
  <diagram name="第 1 页" id="4m68-YPP_NvnP-Ug5wZh">
    <mxGraphModel>
      <root>
        <mxCell id="0" />
        <mxCell id="1" parent="0" />
      </root>
    </mxGraphModel>
  </diagram>
</mxfile>
